<svg width="120" height="120" viewBox="0 0 120 120" xmlns="http://www.w3.org/2000/svg">
  <defs>
    <linearGradient id="grad" x1="0%" y1="0%" x2="100%" y2="100%">
      <stop offset="0%" style="stop-color:#FF6B6B;stop-opacity:1" />
      <stop offset="100%" style="stop-color:#4ECDC4;stop-opacity:1" />
    </linearGradient>
    <filter id="shadow" x="-20%" y="-20%" width="140%" height="140%">
      <feGaussianBlur in="SourceAlpha" stdDeviation="2" />
      <feOffset dx="1" dy="1" result="offsetblur" />
      <feComponentTransfer>
        <feFuncA type="linear" slope="0.5" />
      </feComponentTransfer>
      <feMerge>
        <feMergeNode />
        <feMergeNode in="SourceGraphic" />
      </feMerge>
    </filter>
  </defs>
  <circle cx="60" cy="60" r="50" fill="url(#grad)" />
  <path d="M60 25c-19.33 0-35 15.67-35 35s15.67 35 35 35 35-15.67 35-35-15.67-35-35-35zm0 65c-16.57 0-30-13.43-30-30s13.43-30 30-30 30 13.43 30 30-13.43 30-30 30z" fill="white" fill-opacity="0.3"/>
  <path d="M60 35c-13.807 0-25 11.193-25 25s11.193 25 25 25 25-11.193 25-25-11.193-25-25-25zm0 45c-11.046 0-20-8.954-20-20s8.954-20 20-20 20 8.954 20 20-8.954 20-20 20z" fill="white" fill-opacity="0.5"/>
  <g filter="url(#shadow)">
    <path d="M75 55c0 8.284-6.716 15-15 15-8.284 0-15-6.716-15-15 0-8.284 6.716-15 15-15 8.284 0 15 6.716 15 15z" fill="white"/>
    <path d="M60 75c-10 0-25 5-25 25h50c0-20-15-25-25-25z" fill="white"/>
  </g>
  <circle cx="60" cy="60" r="52" fill="none" stroke="white" stroke-width="2" stroke-opacity="0.3"/>
  <path d="M85 35c0 2.761-2.239 5-5 5s-5-2.239-5-5 2.239-5 5-5 5 2.239 5 5zM45 85c0 2.761-2.239 5-5 5s-5-2.239-5-5 2.239-5 5-5 5 2.239 5 5z" fill="white" fill-opacity="0.8"/>
</svg>